Coordinates
version=1
nRows=24
nColumns=38
inDegrees=no

Units are S.I. units (second, meters, Newtons, ...)
If the header above contains a line with 'inDegrees', this indicates whether rotational values are in degrees (yes) or radians (no).

endheader
time	pelvis_tilt	pelvis_list	pelvis_rotation	pelvis_tx	pelvis_ty	pelvis_tz	hip_flexion_r	hip_adduction_r	hip_rotation_r	knee_angle_r	ankle_angle_r	subtalar_angle_r	mtp_angle_r	hip_flexion_l	hip_adduction_l	hip_rotation_l	knee_angle_l	ankle_angle_l	subtalar_angle_l	mtp_angle_l	lumbar_extension	lumbar_bending	lumbar_rotation	arm_flex_r	arm_add_r	arm_rot_r	elbow_flex_r	pro_sup_r	wrist_flex_r	wrist_dev_r	arm_flex_l	arm_add_l	arm_rot_l	elbow_flex_l	pro_sup_l	wrist_flex_l	wrist_dev_l
0.625	0.0917093	0.139061	0.0850533	0.915922	0.997776	-0.308533	0.509984	-0.196853	-0.070591	-2.10407	0.0502661	0.0508115	3.48375e-05	0.164571	0.262056	0.0208009	-0.89865	0.543771	0.0211036	0.000119339	-0.500676	-0.0960232	-0.229082	-0.40799	-0.266914	-0.0897688	1.75014	2.12371	0.0223425	-0.00780003	-0.0340518	-0.392268	0.0413957	2.06789	1.70048	0.0428049	0.0219974
0.633333	0.0871697	0.126388	0.0924283	0.916099	0.999636	-0.309667	0.561038	-0.183445	-0.0703128	-2.07227	0.0585012	0.0508115	3.48375e-05	0.114433	0.245411	0.0391052	-0.867334	0.54732	0.0211036	0.000119339	-0.490035	-0.0740515	-0.249947	-0.444158	-0.271452	-0.0927402	1.76851	2.10287	0.0223425	-0.00780003	-0.026782	-0.38434	0.0321951	2.09315	1.71124	0.0428049	0.0219974
0.641667	0.0811414	0.111519	0.0995486	0.916961	1.00207	-0.310742	0.608261	-0.16968	-0.0751309	-2.03109	0.0664501	0.0508115	3.48375e-05	0.0635567	0.22491	0.056039	-0.828936	0.539993	0.0211036	0.000119339	-0.47567	-0.050679	-0.268384	-0.483019	-0.275511	-0.0976019	1.79126	2.08536	0.0223425	-0.00780003	-0.023619	-0.375387	0.0243092	2.12073	1.72361	0.0428049	0.0219974
0.65	0.0738185	0.0946214	0.105914	0.91847	1.00502	-0.311717	0.65126	-0.155604	-0.0846285	-1.98112	0.0737488	0.0508115	3.48375e-05	0.0124355	0.200925	0.0701653	-0.783957	0.520303	0.0211036	0.000119339	-0.458097	-0.0263195	-0.283912	-0.523887	-0.278398	-0.105458	1.81634	2.07318	0.0223425	-0.00780003	-0.0236785	-0.365573	0.0189974	2.14907	1.73657	0.0428049	0.0219974
0.658333	0.0654673	0.0759795	0.110981	0.92057	1.00842	-0.312559	0.689693	-0.141135	-0.0980792	-1.9229	0.0798805	0.0508115	3.48375e-05	-0.0385413	0.17408	0.0799381	-0.733022	0.486916	0.0211036	0.000119339	-0.437983	-0.00138743	-0.29613	-0.566088	-0.279684	-0.116955	1.84209	2.0669	0.0223425	-0.00780003	-0.0261197	-0.355016	0.017167	2.17681	1.74913	0.0428049	0.0219974
0.666667	0.0563641	0.0560115	0.114235	0.923188	1.0122	-0.313244	0.72329	-0.126107	-0.114492	-1.85686	0.0843408	0.0508115	3.48375e-05	-0.0890078	0.145259	0.0838666	-0.676975	0.438892	0.0211036	0.000119339	-0.416045	0.0236801	-0.304794	-0.60895	-0.27922	-0.132212	1.86736	2.06585	0.0223425	-0.00780003	-0.0302522	-0.343806	0.0192597	2.20294	1.76048	0.0428049	0.0219974
0.675	0.0467447	0.0352834	0.115261	0.926233	1.01625	-0.31376	0.75186	-0.110343	-0.132666	-1.78333	0.0867875	0.0508115	3.48375e-05	-0.138547	0.115576	0.0807056	-0.616978	0.37596	0.0211036	0.000119339	-0.392965	0.0483982	-0.309876	-0.651784	-0.277108	-0.150838	1.89138	2.06845	0.0223425	-0.00780003	-0.0356043	-0.332031	0.0252293	2.2268	1.77012	0.0428049	0.0219974
0.683333	0.0367882	0.0145011	0.113815	0.929602	1.02047	-0.314095	0.775279	-0.0937292	-0.151266	-1.70254	0.0871432	0.0508115	3.48375e-05	-0.186651	0.0863071	0.0696519	-0.554561	0.298785	0.0211036	0.000119339	-0.369334	0.0722191	-0.311616	-0.693861	-0.273667	-0.172033	1.91373	2.07268	0.0223425	-0.00780003	-0.0419424	-0.319796	0.0345994	2.24812	1.77788	0.0428049	0.0219974
0.691667	0.0266221	-0.00552505	0.10985	0.933185	1.02473	-0.314244	0.793467	-0.0762835	-0.168911	-1.6147	0.0856413	0.0508115	3.48375e-05	-0.232717	0.0587997	0.0505028	-0.491635	0.2092	0.0211036	0.000119339	-0.345645	0.0945246	-0.310519	-0.734401	-0.269378	-0.194715	1.9342	2.07652	0.0223425	-0.00780003	-0.049242	-0.307252	0.0465836	2.26688	1.7839	0.0428049	0.0219974
0.7	0.016344	-0.0239428	0.103525	0.936874	1.02893	-0.314201	0.806379	-0.0581927	-0.184268	-1.52007	0.0828203	0.0508115	3.48375e-05	-0.276086	0.0343505	0.0237461	-0.430432	0.110341	0.0211036	0.000119339	-0.322311	0.114631	-0.307307	-0.772573	-0.264822	-0.217667	1.95272	2.07839	0.0223425	-0.00780003	-0.0576224	-0.294616	0.060237	2.2833	1.7885	0.0428049	0.0219974
0.708333	0.00607876	-0.0398958	0.0951569	0.940564	1.03296	-0.313976	0.81401	-0.0398052	-0.196184	-1.41903	0.0794719	0.0508115	3.48375e-05	-0.316096	0.0140606	-0.0094308	-0.37338	0.00661405	0.0211036	0.000119339	-0.299687	0.13184	-0.302821	-0.807528	-0.260597	-0.239689	1.96929	2.07745	0.0223425	-0.00780003	-0.0672628	-0.282187	0.0746062	2.29769	1.79211	0.0428049	0.0219974
0.716667	-0.00401791	-0.0526395	0.0851844	0.944164	1.0367	-0.313584	0.816412	-0.0216066	-0.2038	-1.31226	0.0765467	0.0508115	3.48375e-05	-0.352146	-0.00128272	-0.0472214	-0.322943	-0.0965536	0.0211036	0.000119339	-0.278105	0.145503	-0.297908	-0.838441	-0.257225	-0.259742	1.98391	2.07366	0.0223425	-0.00780003	-0.0783234	-0.270333	0.0888519	2.31041	1.7951	0.0428049	0.0219974
0.725	-0.0137463	-0.0616394	0.0741246	0.9476	1.04007	-0.313048	0.813723	-0.00417472	-0.206678	-1.20084	0.0750158	0.0508115	3.48375e-05	-0.383758	-0.0112992	-0.0873626	-0.28146	-0.193215	0.0211036	0.000119339	-0.25789	0.155117	-0.29332	-0.864575	-0.255087	-0.277066	1.99657	2.06787	0.0223425	-0.00780003	-0.0908847	-0.259454	0.102329	2.32174	1.79774	0.0428049	0.0219974
0.733333	-0.0228523	-0.066649	0.0625332	0.950823	1.043	-0.312398	0.806192	0.0118795	-0.204866	-1.08635	0.0756982	0.0508115	3.48375e-05	-0.410602	-0.0160576	-0.127368	-0.251012	-0.277602	0.0211036	0.000119339	-0.239384	0.160424	-0.28962	-0.88534	-0.254377	-0.291247	2.00726	2.06155	0.0223425	-0.00780003	-0.10491	-0.249918	0.114621	2.33186	1.80013	0.0428049	0.0219974
0.741667	-0.0310115	-0.0677462	0.0509548	0.953809	1.04543	-0.311675	0.794195	0.0259872	-0.198898	-0.970958	0.0790781	0.0508115	3.48375e-05	-0.432487	-0.0160602	-0.164808	-0.233342	-0.344911	0.0211036	0.000119339	-0.222951	0.161482	-0.287138	-0.90033	-0.255102	-0.30222	2.01596	2.0565	0.0223425	-0.00780003	-0.120234	-0.242005	0.125527	2.34078	1.80223	0.0428049	0.0219974
0.75	-0.037851	-0.0653057	0.039863	0.956539	1.04732	-0.31093	0.778235	0.0377181	-0.189696	-0.857353	0.0851564	0.0508115	3.48375e-05	-0.44935	-0.0121785	-0.1976	-0.229805	-0.392008	0.0211036	0.000119339	-0.208999	0.158688	-0.285933	-0.909339	-0.25712	-0.310203	2.02267	2.05448	0.0223425	-0.00780003	-0.13657	-0.235871	0.135023	2.34838	1.80387	0.0428049	0.0219974
0.758333	-0.042986	-0.0599901	0.0296114	0.958999	1.04867	-0.310207	0.758917	0.0468678	-0.178396	-0.748643	0.0933838	0.0508115	3.48375e-05	-0.46122	-0.00553475	-0.224265	-0.241343	-0.417893	0.0211036	0.000119339	-0.19799	0.152725	-0.2858	-0.912345	-0.260187	-0.315582	2.02738	2.05676	0.0223425	-0.00780003	-0.153535	-0.231531	0.1432	2.3544	1.80486	0.0428049	0.0219974
0.766667	-0.046034	-0.0526767	0.0203889	0.961172	1.04949	-0.309532	0.736921	0.0535298	-0.166164	-0.6481	0.102699	0.0508115	3.48375e-05	-0.468199	0.00261103	-0.244104	-0.26844	-0.423819	0.0211036	0.000119339	-0.190395	0.144494	-0.286299	-0.909489	-0.264033	-0.318794	2.03015	2.06383	0.0223425	-0.00780003	-0.170694	-0.228874	0.150204	2.35855	1.805	0.0428049	0.0219974
0.775	-0.0466651	-0.0443771	0.0122115	0.963044	1.04982	-0.308915	0.712949	0.0581236	-0.154022	-0.558834	0.111671	0.0508115	3.48375e-05	-0.470447	0.0109604	-0.257252	-0.311088	-0.413009	0.0211036	0.000119339	-0.18665	0.135037	-0.286818	-0.90105	-0.268423	-0.320234	2.03106	2.07519	0.0223425	-0.00780003	-0.187609	-0.227687	0.156186	2.3605	1.80419	0.0428049	0.0219974
0.783333	-0.0446626	-0.0361595	0.00494786	0.964598	1.0497	-0.308334	0.687677	0.061365	-0.142754	-0.483453	0.11872	0.0508115	3.48375e-05	-0.46818	0.018254	-0.264596	-0.36875	-0.390015	0.0211036	0.000119339	-0.187067	0.125443	-0.286656	-0.887423	-0.273203	-0.320196	2.03029	2.08948	0.0223425	-0.00780003	-0.203893	-0.227688	0.161268	2.36001	1.80243	0.0428049	0.0219974
0.791667	-0.0399793	-0.0290621	-0.00163323	0.965817	1.04915	-0.307757	0.661733	0.0641861	-0.132863	-0.423796	0.122365	0.0508115	3.48375e-05	-0.461676	0.0233323	-0.267589	-0.44035	-0.359914	0.0211036	0.000119339	-0.191766	0.116769	-0.285113	-0.869101	-0.278327	-0.318864	2.02811	2.10467	0.0223425	-0.00780003	-0.219251	-0.228563	0.165528	2.35692	1.79977	0.0428049	0.0219974
0.8	-0.0327467	-0.0240083	-0.00781507	0.966678	1.04816	-0.307136	0.635691	0.067612	-0.124571	-0.380841	0.121513	0.0508115	3.48375e-05	-0.451306	0.0251967	-0.267989	-0.524288	-0.327454	0.0211036	0.000119339	-0.200653	0.109938	-0.28156	-0.84664	-0.283855	-0.31633	2.02485	2.11856	0.0223425	-0.00780003	-0.233503	-0.230008	0.169001	2.3512	1.79632	0.0428049	0.0219974
0.808333	-0.0232656	-0.0217218	-0.0138916	0.967163	1.0467	-0.306417	0.610113	0.0726249	-0.11783	-0.354798	0.115702	0.0508115	3.48375e-05	-0.437533	0.0230636	-0.267601	-0.618525	-0.296384	0.0211036	0.000119339	-0.213423	0.105646	-0.275491	-0.82061	-0.28993	-0.312615	2.02089	2.12915	0.0223425	-0.00780003	-0.246571	-0.231765	0.171695	2.3429	1.79223	0.0428049	0.0219974
0.816667	-0.0119723	-0.0226609	-0.0201329	0.967254	1.04474	-0.305558	0.58561	0.0800341	-0.112348	-0.345337	0.105311	0.0508115	3.48375e-05	-0.420874	0.0164116	-0.268028	-0.720731	-0.269065	0.0211036	0.000119339	-0.229611	0.104291	-0.266561	-0.791525	-0.29675	-0.307682	2.01653	2.13506	0.0223425	-0.00780003	-0.25845	-0.233638	0.173609	2.33211	1.78757	0.0428049	0.0219974
